PathFileType	4	(X/Y/Z)	Walk4.trc
DataRate	CameraRate	NumFrames	NumMarkers	Units	OrigDataRate	OrigDataStartFrame	OrigNumFrames
200.000000	200.000000	4	58	mm	200.000000	168	454
Frame#	Times		LFHD		RFHD		RBHD		C7		CLAV		STRN		RBack		RASI		LPSI		RACR1		RUA1		RElbow		RFA1		RWRR		RCAR		LACR1		LUA1		LElbow		LFA1		LWRR		LWRU		LCAR		RTH1		RTH3		RTH2		RTH4		RLFC		RTB1		RTB3		RTB2		RTB4		RLMAL		RMMAL		RCAL		RMT1		RMT5		RToe		LTH1		LTH3		LTH2		LTH4		LLFC		LTB1		LTB3		LTB2		LTB4		LLMAL		LMT5		LToe		RWRU		LBHD		T10		LMMAL		RPSI		LASI		LElbowM		LMT1		LCAL
			X1	Y1	Z1	X2	Y2	Z2	X3	Y3	Z3	X4	Y4	Z4	X5	Y5	Z5	X6	Y6	Z6	X7	Y7	Z7	X8	Y8	Z8	X9	Y9	Z9	X10	Y10	Z10	X11	Y11	Z11	X12	Y12	Z12	X13	Y13	Z13	X14	Y14	Z14	X15	Y15	Z15	X16	Y16	Z16	X17	Y17	Z17	X18	Y18	Z18	X19	Y19	Z19	X20	Y20	Z20	X21	Y21	Z21	X22	Y22	Z22	X23	Y23	Z23	X24	Y24	Z24	X25	Y25	Z25	X26	Y26	Z26	X27	Y27	Z27	X28	Y28	Z28	X29	Y29	Z29	X30	Y30	Z30	X31	Y31	Z31	X32	Y32	Z32	X33	Y33	Z33	X34	Y34	Z34	X35	Y35	Z35	X36	Y36	Z36	X37	Y37	Z37	X38	Y38	Z38	X39	Y39	Z39	X40	Y40	Z40	X41	Y41	Z41	X42	Y42	Z42	X43	Y43	Z43	X44	Y44	Z44	X45	Y45	Z45	X46	Y46	Z46	X47	Y47	Z47	X48	Y48	Z48	X49	Y49	Z49	X50	Y50	Z50	X51	Y51	Z51	X52	Y52	Z52	X53	Y53	Z53	X54	Y54	Z54	X55	Y55	Z55	X56	Y56	Z56	X57	Y57	Z57	X58	Y58	Z58

168	0.84	-442.11	1596.2	-83.481	-430.73	1598.4	10.65	-580.36	1545	45.036	-617.52	1412.5	-22.669	-475.02	1341	-26.709	-411.27	1239.3	-21.408	-666.43	1318.4	85.759	-440.9	971.4	143.13	-664.89	960.88	-63.154	-541.65	1377.4	129	-552.91	1196.5	228.14	-601.19	1074.7	256.16	-586.3	928.07	273.05	-500.4	835.11	235.36	-488.09	784	286.05	-539.18	1371.3	-182.59	-550.71	1185.6	-269.97	-595.64	1061.5	-291.24	-602.92	926.23	-307.84	-546.88	809.24	-263.29	-593.42	810.46	-318.06	-542.01	759.12	-302.45	-496.21	728.05	202.94	-494.14	558.21	174.22	-440.49	648.12	168.78	-496.18	641.71	186.71	-501.74	471.58	158.17	-553.21	317.38	98.235	-699.62	224.56	85.646	-645.56	295.36	143	-626.49	269.62	89.715	-817.42	189.01	104	-794.42	180.29	22.848	-873.92	222.74	58.531	-786.9	69.818	43.361	-816.12	84.415	104.74	-754.02	32.936	77.497	-479.62	757.76	-224.61	-453.58	597.55	-168.87	-412.09	694.87	-179.24	-467.87	679.94	-192.5	-432.71	479.36	-132.07	-387.15	337.76	-49.987	-408.4	166.53	-53.278	-415.65	253.16	-109.34	-398.94	251.8	-50.243	-454.15	59.784	-81.881	-368.31	23.635	-90.839	-271.62	25.417	-34.414	-554.78	822.83	280.41	-591.07	1534.6	-94.928	-679.33	1143.5	-21.497	-442.79	63.252	3.0474	-671.69	958.68	26.474	-406.88	967.24	-143.6	-629.67	1039.3	-218.77	-341.33	30.361	-10.354	-518.5	29.816	-49.1
169	0.845	-436.57	1596.7	-84.013	-425.12	1599.1	10.117	-574.8	1545.9	44.681	-612.18	1413.3	-22.805	-469.73	1341.7	-26.788	-406.03	1240	-21.291	-661.26	1319	85.391	-436.18	971.98	143.28	-659.7	961.81	-63.81	-536.54	1378.1	128.97	-548.32	1197.1	227.98	-596.97	1075.4	255.87	-583.33	928.78	272.85	-498.79	834.92	235.02	-486.66	783.6	285.52	-533.76	1372.1	-182.68	-543.76	1186.4	-270.25	-587.66	1062.1	-292.07	-593.3	926.59	-308.58	-536.1	810.37	-263.35	-582.3	810.88	-318.51	-530.1	760.41	-302.61	-490.57	729.12	202.96	-486.19	559.25	174.51	-433.49	649.74	169.78	-489.35	642.8	186.97	-492.13	472.76	158.45	-541.49	318.61	99.101	-687.69	225.49	86.447	-634.09	296.74	143.45	-614.57	270.68	90.542	-805.36	189.37	104.47	-782.33	180.87	23.288	-862.63	222.19	59.177	-772.87	70.852	44.402	-802.43	85.407	106.15	-739.31	33.859	78.594	-475.11	758.27	-224.88	-450.44	597.82	-169.16	-408.21	694.84	-179.25	-464.06	680.35	-192.82	-430.89	479.35	-132.36	-386.28	337.56	-50.202	-408.08	166.41	-53.373	-415.02	253.01	-109.5	-398.36	251.64	-50.398	-454.17	59.778	-81.9	-368.34	23.606	-90.894	-271.71	25.495	-34.447	-552.87	823.36	280.44	-585.64	1535.3	-95.248	-674.1	1144.3	-21.929	-442.79	63.297	2.9841	-666.61	959.56	25.819	-401.75	967.54	-143.71	-622.28	1039.5	-219.99	-341.37	30.371	-10.389	-518.55	29.83	-49.13
170	0.85	-431.04	1597.3	-84.516	-419.51	1599.8	9.6161	-569.25	1546.8	44.348	-606.84	1414.1	-22.92	-464.44	1342.4	-26.849	-400.8	1240.6	-21.137	-656.09	1319.7	85.044	-431.45	972.6	143.41	-654.54	962.72	-64.448	-531.42	1378.8	128.96	-543.78	1197.6	227.84	-592.78	1076.1	255.59	-580.36	929.49	272.67	-497.19	834.76	234.68	-485.2	783.24	285.02	-528.37	1372.8	-182.75	-536.85	1187.2	-270.52	-579.66	1062.7	-292.88	-583.64	927	-309.29	-525.26	811.55	-263.41	-571.14	811.36	-318.94	-518.14	761.8	-302.78	-485.08	730.16	203.03	-478.34	560.32	174.78	-426.63	651.38	170.83	-482.67	643.88	187.22	-482.54	474.01	158.71	-529.74	319.88	99.872	-675.59	226.29	87.216	-622.5	298.05	143.87	-602.56	271.69	91.293	-793.07	189.43	104.88	-769.97	181.16	23.7	-851.15	221.2	59.739	-758.39	71.678	45.44	-788.32	86.173	107.59	-724.07	34.707	79.715	-470.69	758.74	-225.16	-447.35	598.07	-169.43	-404.42	694.81	-179.27	-460.31	680.73	-193.11	-429.13	479.35	-132.63	-385.43	337.36	-50.458	-407.79	166.29	-53.504	-414.47	252.86	-109.68	-397.8	251.48	-50.586	-454.19	59.774	-81.919	-368.36	23.576	-90.952	-271.8	25.573	-34.482	-550.93	823.9	280.48	-580.21	1536.1	-95.543	-668.88	1145.1	-22.355	-442.79	63.342	2.9217	-661.55	960.46	25.179	-396.64	967.78	-143.79	-614.86	1039.7	-221.19	-341.41	30.379	-10.426	-518.59	29.848	-49.154
171	0.855	-425.51	1597.8	-84.987	-413.91	1600.5	9.1482	-563.71	1547.7	44.039	-601.5	1414.9	-23.02	-459.16	1343.1	-26.892	-395.58	1241.2	-20.947	-650.92	1320.3	84.715	-426.68	973.24	143.53	-649.41	963.61	-65.066	-526.3	1379.4	128.97	-539.29	1198.2	227.72	-588.63	1076.9	255.33	-577.37	930.2	272.51	-495.58	834.64	234.36	-483.69	782.92	284.54	-522.99	1373.6	-182.8	-529.97	1188	-270.77	-571.66	1063.3	-293.67	-573.96	927.44	-309.97	-514.37	812.8	-263.45	-559.95	811.9	-319.34	-506.14	763.28	-302.94	-479.71	731.16	203.15	-470.57	561.42	175.04	-419.88	653.04	171.92	-476.09	644.95	187.45	-472.96	475.34	158.94	-517.95	321.18	100.54	-663.32	226.92	87.938	-610.81	299.23	144.26	-590.46	272.63	91.956	-780.55	189.19	105.22	-757.34	181.13	24.081	-839.48	219.8	60.208	-743.5	72.295	46.473	-773.82	86.716	109.05	-708.36	35.478	80.859	-466.36	759.14	-225.45	-444.31	598.31	-169.68	-400.69	694.76	-179.28	-456.64	681.07	-193.38	-427.43	479.35	-132.88	-384.59	337.16	-50.747	-407.51	166.18	-53.668	-413.98	252.73	-109.87	-397.25	251.32	-50.801	-454.21	59.774	-81.936	-368.39	23.545	-91.011	-271.88	25.65	-34.518	-548.95	824.46	280.53	-574.78	1536.8	-95.815	-663.68	1145.9	-22.776	-442.78	63.387	2.8614	-656.5	961.38	24.558	-391.56	967.97	-143.84	-607.42	1040	-222.37	-341.44	30.385	-10.464	-518.63	29.87	-49.171
